solid OpenSCAD_Model
  facet normal 1 -0 0
    outer loop
      vertex 13 -10 8
      vertex 13 10 0
      vertex 13 10 8
    endloop
  endfacet
  facet normal 1 0 0
    outer loop
      vertex 13 10 0
      vertex 13 -10 8
      vertex 13 -10 0
    endloop
  endfacet
  facet normal 0 0 1
    outer loop
      vertex -2.3 -1.05 8
      vertex -5.2 -1.05 8
      vertex -2.3 -2.4 8
    endloop
  endfacet
  facet normal 0 0 1
    outer loop
      vertex 5.2 -1.05 8
      vertex 13 10 8
      vertex 5.2 3.55 8
    endloop
  endfacet
  facet normal 0 0 1
    outer loop
      vertex 13 10 8
      vertex -5.2 3.55 8
      vertex 5.2 3.55 8
    endloop
  endfacet
  facet normal 0 0 1
    outer loop
      vertex -5.2 3.55 8
      vertex -13 10 8
      vertex -5.2 -1.05 8
    endloop
  endfacet
  facet normal -0 0 1
    outer loop
      vertex -13 10 8
      vertex -5.2 3.55 8
      vertex 13 10 8
    endloop
  endfacet
  facet normal 0 0 1
    outer loop
      vertex 13 10 8
      vertex 5.2 -1.05 8
      vertex 13 -10 8
    endloop
  endfacet
  facet normal 0 0 1
    outer loop
      vertex 2.3 -2.4 8
      vertex 5.2 -1.05 8
      vertex 2.3 -1.05 8
    endloop
  endfacet
  facet normal 0 0 1
    outer loop
      vertex 5.2 -1.05 8
      vertex 2.3 -2.4 8
      vertex 13 -10 8
    endloop
  endfacet
  facet normal -0 0 1
    outer loop
      vertex -2.3 -2.4 8
      vertex 13 -10 8
      vertex 2.3 -2.4 8
    endloop
  endfacet
  facet normal 0 0 1
    outer loop
      vertex -13 -10 8
      vertex -2.3 -2.4 8
      vertex -5.2 -1.05 8
    endloop
  endfacet
  facet normal 0 0 1
    outer loop
      vertex -2.3 -2.4 8
      vertex -13 -10 8
      vertex 13 -10 8
    endloop
  endfacet
  facet normal 0 0 1
    outer loop
      vertex -13 -10 8
      vertex -5.2 -1.05 8
      vertex -13 10 8
    endloop
  endfacet
  facet normal 0 0 -1
    outer loop
      vertex 13 -10 0
      vertex 5.2 -1.05 0
      vertex 13 10 0
    endloop
  endfacet
  facet normal 0 0 -1
    outer loop
      vertex 13 -10 0
      vertex 2.3 -2.4 0
      vertex 5.2 -1.05 0
    endloop
  endfacet
  facet normal 0 0 -1
    outer loop
      vertex 13 -10 0
      vertex -2.3 -2.4 0
      vertex 2.3 -2.4 0
    endloop
  endfacet
  facet normal 0 0 -1
    outer loop
      vertex -2.3 -2.4 0
      vertex -5.2 -1.05 0
      vertex -2.3 -1.05 0
    endloop
  endfacet
  facet normal 0 0 -1
    outer loop
      vertex -13 -10 0
      vertex -2.3 -2.4 0
      vertex 13 -10 0
    endloop
  endfacet
  facet normal 0 0 -1
    outer loop
      vertex -13 10 0
      vertex -5.2 -1.05 0
      vertex -13 -10 0
    endloop
  endfacet
  facet normal -0 0 -1
    outer loop
      vertex -2.3 -2.4 0
      vertex -13 -10 0
      vertex -5.2 -1.05 0
    endloop
  endfacet
  facet normal 0 0 -1
    outer loop
      vertex 5.2 3.55 0
      vertex 13 10 0
      vertex 5.2 -1.05 0
    endloop
  endfacet
  facet normal 0 0 -1
    outer loop
      vertex -5.2 3.55 0
      vertex 13 10 0
      vertex 5.2 3.55 0
    endloop
  endfacet
  facet normal 0 0 -1
    outer loop
      vertex -5.2 3.55 0
      vertex -13 10 0
      vertex 13 10 0
    endloop
  endfacet
  facet normal 0 0 -1
    outer loop
      vertex -5.2 -1.05 0
      vertex -13 10 0
      vertex -5.2 3.55 0
    endloop
  endfacet
  facet normal -0 0 -1
    outer loop
      vertex 5.2 -1.05 0
      vertex 2.3 -2.4 0
      vertex 2.3 -1.05 0
    endloop
  endfacet
  facet normal -1 0 0
    outer loop
      vertex -13 -10 0
      vertex -13 10 8
      vertex -13 10 0
    endloop
  endfacet
  facet normal -1 -0 0
    outer loop
      vertex -13 10 8
      vertex -13 -10 0
      vertex -13 -10 8
    endloop
  endfacet
  facet normal 0 1 -0
    outer loop
      vertex 13 10 0
      vertex -13 10 8
      vertex 13 10 8
    endloop
  endfacet
  facet normal 0 1 0
    outer loop
      vertex -13 10 8
      vertex 13 10 0
      vertex -13 10 0
    endloop
  endfacet
  facet normal 0 -1 0
    outer loop
      vertex -13 -10 0
      vertex 13 -10 8
      vertex -13 -10 8
    endloop
  endfacet
  facet normal 0 -1 -0
    outer loop
      vertex 13 -10 8
      vertex -13 -10 0
      vertex 13 -10 0
    endloop
  endfacet
  facet normal -1 0 0
    outer loop
      vertex 5.2 -1.05 0
      vertex 5.2 3.55 8
      vertex 5.2 3.55 0
    endloop
  endfacet
  facet normal -1 -0 0
    outer loop
      vertex 5.2 3.55 8
      vertex 5.2 -1.05 0
      vertex 5.2 -1.05 8
    endloop
  endfacet
  facet normal 1 -0 0
    outer loop
      vertex -5.2 -1.05 8
      vertex -5.2 3.55 0
      vertex -5.2 3.55 8
    endloop
  endfacet
  facet normal 1 0 0
    outer loop
      vertex -5.2 3.55 0
      vertex -5.2 -1.05 8
      vertex -5.2 -1.05 0
    endloop
  endfacet
  facet normal 0 -1 0
    outer loop
      vertex -5.2 3.55 0
      vertex 5.2 3.55 8
      vertex -5.2 3.55 8
    endloop
  endfacet
  facet normal 0 -1 -0
    outer loop
      vertex 5.2 3.55 8
      vertex -5.2 3.55 0
      vertex 5.2 3.55 0
    endloop
  endfacet
  facet normal 0 1 -0
    outer loop
      vertex -2.3 -1.05 0
      vertex -5.2 -1.05 8
      vertex -2.3 -1.05 8
    endloop
  endfacet
  facet normal 0 1 0
    outer loop
      vertex -5.2 -1.05 8
      vertex -2.3 -1.05 0
      vertex -5.2 -1.05 0
    endloop
  endfacet
  facet normal 0 1 -0
    outer loop
      vertex 5.2 -1.05 0
      vertex 2.3 -1.05 8
      vertex 5.2 -1.05 8
    endloop
  endfacet
  facet normal 0 1 0
    outer loop
      vertex 2.3 -1.05 8
      vertex 5.2 -1.05 0
      vertex 2.3 -1.05 0
    endloop
  endfacet
  facet normal -1 0 0
    outer loop
      vertex 2.3 -2.4 0
      vertex 2.3 -1.05 8
      vertex 2.3 -1.05 0
    endloop
  endfacet
  facet normal -1 -0 0
    outer loop
      vertex 2.3 -1.05 8
      vertex 2.3 -2.4 0
      vertex 2.3 -2.4 8
    endloop
  endfacet
  facet normal 1 -0 0
    outer loop
      vertex -2.3 -2.4 8
      vertex -2.3 -1.05 0
      vertex -2.3 -1.05 8
    endloop
  endfacet
  facet normal 1 0 0
    outer loop
      vertex -2.3 -1.05 0
      vertex -2.3 -2.4 8
      vertex -2.3 -2.4 0
    endloop
  endfacet
  facet normal 0 1 -0
    outer loop
      vertex 2.3 -2.4 0
      vertex -2.3 -2.4 8
      vertex 2.3 -2.4 8
    endloop
  endfacet
  facet normal 0 1 0
    outer loop
      vertex -2.3 -2.4 8
      vertex 2.3 -2.4 0
      vertex -2.3 -2.4 0
    endloop
  endfacet
endsolid OpenSCAD_Model
